# xmcd CD database file
# Copyright (C) 1993-2000  Ti Kan
#
# Track frame offsets:
#	150
#	14513
#	29901
#	40733
#	61975
#	75437
#	89509
#	111693
#	121745
#	136130
#	157189
#	168556
#	180209
#	194463
#	203404
#
# Disc length: 2874 seconds
#
# Revision: 1
# Processed by: cddbd v1.4b42PL1 Copyright (c) Steve Scherf et al.
# Submitted via: xmcd 2.6 PL0
#
DISCID=c90b380f
DTITLE=Big Bill Broonzy - Absolutely the best
DYEAR=1900
DGENRE=
TTITLE0=Baby Please Don't Go
TTITLE1=In The Evenin' (When The Sun Goes Down)
TTITLE2=St. Louis Blues
TTITLE3=Feelin' Lowdown
TTITLE4=See See Rider
TTITLE5=All I Got Belongs To You
TTITLE6=Ridin' On Down
TTITLE7=Sixteen Tons
TTITLE8=Treat Everybody Right
TTITLE9=I Got Up One Mornin' Blues
TTITLE10=Down By The Riverside
TTITLE11=Black, Brown And White
TTITLE12=This Train
TTITLE13=Midnight Special
TTITLE14=I Gets The Blues When It Rains
EXTD=
EXTT0=
EXTT1=
EXTT2=
EXTT3=
EXTT4=
EXTT5=
EXTT6=
EXTT7=
EXTT8=
EXTT9=
EXTT10=
EXTT11=
EXTT12=
EXTT13=
EXTT14=
PLAYORDER=
